<svg width="102" height="101" viewBox="0 0 69 77" fill="none" xmlns="http://www.w3.org/2000/svg">
<path d="M56.3187 9.94874C56.0153 9.94874 55.712 9.87291 55.4466 9.72124C48.1666 5.96749 41.8724 4.37499 34.327 4.37499C26.8195 4.37499 19.6912 6.15708 13.2074 9.72124C12.2974 10.2142 11.1599 9.87291 10.6291 8.96291C10.1362 8.05291 10.4774 6.87749 11.3874 6.38458C18.4399 2.55499 26.1749 0.583328 34.327 0.583328C42.4032 0.583328 49.4557 2.36541 57.1907 6.34666C58.1387 6.83958 58.4799 7.97708 57.987 8.88708C57.6457 9.56958 57.0012 9.94874 56.3187 9.94874V9.94874ZM2.05991 29.855C1.68074 29.855 1.30158 29.7412 0.960327 29.5137C0.0882436 28.9071 -0.10134 27.7317 0.505326 26.8596C4.25908 21.5512 9.03658 17.3804 14.7241 14.4608C26.6299 8.31833 41.8724 8.28041 53.8162 14.4229C59.5037 17.3425 64.2812 21.4754 68.0349 26.7458C68.6416 27.58 68.452 28.7933 67.5799 29.4C66.7078 30.0067 65.5324 29.8171 64.9257 28.945C61.5132 24.1675 57.1907 20.4137 52.072 17.7975C41.1899 12.2237 27.2745 12.2237 16.4303 17.8354C11.2737 20.4896 6.95116 24.2812 3.53866 29.0587C3.23533 29.5896 2.66658 29.855 2.05991 29.855V29.855ZM25.7578 75.6204C25.2649 75.6204 24.772 75.4308 24.4307 75.0517C21.132 71.7529 19.3499 69.6296 16.8095 65.0417C14.1932 60.3779 12.8282 54.6904 12.8282 48.5858C12.8282 37.3246 22.4591 28.1487 34.2891 28.1487C46.1191 28.1487 55.7499 37.3246 55.7499 48.5858C55.7499 49.6475 54.9157 50.4817 53.8541 50.4817C52.7924 50.4817 51.9582 49.6475 51.9582 48.5858C51.9582 39.41 44.0337 31.9404 34.2891 31.9404C24.5445 31.9404 16.6199 39.41 16.6199 48.5858C16.6199 54.0458 17.8332 59.0887 20.1462 63.1837C22.5728 67.5442 24.2412 69.4021 27.1607 72.3596C27.8812 73.1179 27.8812 74.2933 27.1607 75.0517C26.7437 75.4308 26.2507 75.6204 25.7578 75.6204ZM52.9441 68.6058C48.432 68.6058 44.4507 67.4683 41.1899 65.2312C35.5403 61.4017 32.1657 55.1833 32.1657 48.5858C32.1657 47.5242 32.9999 46.69 34.0616 46.69C35.1232 46.69 35.9574 47.5242 35.9574 48.5858C35.9574 53.9321 38.6874 58.975 43.3132 62.0842C46.0053 63.9042 49.1524 64.7762 52.9441 64.7762C53.8541 64.7762 55.3707 64.6625 56.8874 64.3971C57.9112 64.2075 58.897 64.89 59.0866 65.9517C59.2762 66.9754 58.5937 67.9612 57.532 68.1508C55.3707 68.5679 53.4749 68.6058 52.9441 68.6058V68.6058ZM45.3228 76.4167C45.1712 76.4167 44.9816 76.3787 44.8299 76.3408C38.8012 74.6725 34.8578 72.4354 30.7249 68.3783C25.4166 63.1079 22.497 56.0933 22.497 48.5858C22.497 42.4433 27.7295 37.4383 34.1753 37.4383C40.6212 37.4383 45.8537 42.4433 45.8537 48.5858C45.8537 52.6429 49.3799 55.9417 53.7403 55.9417C58.1007 55.9417 61.627 52.6429 61.627 48.5858C61.627 34.2912 49.3041 22.6887 34.1374 22.6887C23.3691 22.6887 13.5107 28.6796 9.07449 37.9692C7.59574 41.0404 6.83741 44.6425 6.83741 48.5858C6.83741 51.5433 7.10283 56.2071 9.37783 62.2737C9.75699 63.2596 9.26408 64.3592 8.27824 64.7004C7.29241 65.0796 6.19283 64.5487 5.85158 63.6008C3.99366 58.6337 3.08366 53.7046 3.08366 48.5858C3.08366 44.0358 3.95574 39.9029 5.66199 36.3008C10.7049 25.7221 21.8903 18.8592 34.1374 18.8592C51.3895 18.8592 65.4187 32.1679 65.4187 48.5479C65.4187 54.6904 60.1862 59.6954 53.7403 59.6954C47.2945 59.6954 42.062 54.6904 42.062 48.5479C42.062 44.4908 38.5357 41.1921 34.1753 41.1921C29.8149 41.1921 26.2887 44.4908 26.2887 48.5479C26.2887 55.0317 28.7912 61.0983 33.3791 65.6483C36.9812 69.2125 40.4316 71.1842 45.7778 72.6629C46.8016 72.9283 47.3703 73.99 47.1049 74.9758C46.9153 75.8479 46.1191 76.4167 45.3228 76.4167V76.4167Z" fill="#4318FF"/>
</svg>
