<svg width="15" height="21" viewBox="0 0 17 23" fill="none" xmlns="http://www.w3.org/2000/svg">
<path d="M8.55761 0.429688C4.20764 0.429688 0.689453 3.94788 0.689453 8.29784C0.689453 14.199 8.55761 22.9101 8.55761 22.9101C8.55761 22.9101 16.4258 14.199 16.4258 8.29784C16.4258 3.94788 12.9076 0.429688 8.55761 0.429688ZM2.9375 8.29784C2.9375 5.19554 5.45531 2.67773 8.55761 2.67773C11.6599 2.67773 14.1777 5.19554 14.1777 8.29784C14.1777 11.535 10.9405 16.3796 8.55761 19.4032C6.21964 16.402 2.9375 11.5013 2.9375 8.29784Z" fill="#A3AED0"/>
<path d="M8.55801 11.107C10.11 11.107 11.3681 9.84891 11.3681 8.29696C11.3681 6.74501 10.11 5.48691 8.55801 5.48691C7.00606 5.48691 5.74796 6.74501 5.74796 8.29696C5.74796 9.84891 7.00606 11.107 8.55801 11.107Z" fill="#A3AED0"/>
</svg>
